<svg width="50" height="50" viewBox="0 0 50 50" fill="none" xmlns="http://www.w3.org/2000/svg">
<path d="M42.8907 23.6094L8.51566 6.42188C8.24624 6.28715 7.94361 6.23316 7.64422 6.26642C7.34483 6.29969 7.06143 6.41879 6.82816 6.60938C6.60538 6.79609 6.43911 7.04124 6.34802 7.31727C6.25693 7.59329 6.24464 7.88926 6.31253 8.17188L10.4532 23.4375H28.125V26.5625H10.4532L6.25003 41.7813C6.18632 42.0173 6.17889 42.265 6.22832 42.5044C6.27775 42.7438 6.38268 42.9683 6.53466 43.1598C6.68663 43.3513 6.88143 43.5044 7.10337 43.6069C7.32531 43.7095 7.56821 43.7585 7.81253 43.75C8.05713 43.7485 8.29797 43.6897 8.51566 43.5781L42.8907 26.3906C43.1466 26.2595 43.3614 26.0603 43.5114 25.8149C43.6614 25.5696 43.7407 25.2876 43.7407 25C43.7407 24.7124 43.6614 24.4304 43.5114 24.1851C43.3614 23.9397 43.1466 23.7405 42.8907 23.6094Z" fill="#98A98E"/>
</svg>
